# xmcd
# Copyright (C) 1995-1998 Ti Kan
#
# Track frame offsets:
#       150
#       1763
#       3825
#       6964
#
# Disc length: 124 seconds
#
# Revision: 0
# Processed by: cddbd v1.5.2PL0 Copyright (c) Steve Scherf et al.
# Submitted via: CD-Transfer v1.0
#
DISCID=18007a04
DTITLE=Diverse - Werbung
DYEAR=06
DGENRE=
TTITLE0=Doppelte Cumulus Punkte 1
TTITLE1=Doppelte Cumulus Punkte 2
TTITLE2=Digital Phone (Lang)
TTITLE3=Digital Phone (Kurz)
EXTD=
EXTT0=
EXTT1=
EXTT2=
EXTT3=
PLAYORDER=
